<?xml version="1.0" encoding="utf-8" standalone="no"?>
<svg
  xmlns="http://www.w3.org/2000/svg"
  version="1.1"
  width="616.08002"
  height="616.08002"
  viewBox="0 0 616.08002 616.08002">
  <circle cx="308.04001" cy="308.04001" r="308.04001" fill="#231f20" />
  <g transform="matrix(1.3333333,0,0,-1.3333333,0,616.08),scale(0.1)" style="fill:#fff">
    <path d="m 2010.11,2599.69 h -217.12 v -356.31 h -170.22 l 25.99,-45 1044.45,-1809.048 25.76,-44.613 26.09,44.422 651.04,1108.339 267.89,456.08 26.55,45.2 h -52.41 -523.78 -16.97 l -8.74,-14.54 -192.67,-320.44 -176.25,-293.16 -400.16,693.06 -300.79,521.01 -8.66,15 z m -17.33,-30 300.8,-521.01 425.61,-737.14 0.01,0.01 v -0.01 l 202.48,336.78 192.67,320.44 h 523.78 L 3370.23,1512.68 2719.19,404.332 1674.74,2213.38 h 20.62 127.63 v 356.31 h 169.79" />
    <path d="m 2574.18,2048.33 -718,1243.6 -386.42,-642.67 H 911.293 L 1856.55,4258.49 2926.87,2404.64 h -159.23 v -356.31 h -193.46" />
    <path d="m 1856.66,4288.3 -26.09,-44.42 -651.04,-1108.35 -267.897,-456.08 -26.543,-45.19 h 52.414 523.776 16.97 l 8.74,14.54 192.67,320.44 176.25,293.16 400.15,-693.06 300.8,-521.02 8.66,-15 h 17.32 169.8 30 v 30 326.31 h 97.63 20.62 51.96 l -25.98,45 -1044.45,1809.05 -25.76,44.62 z m -0.22,-59.62 1044.45,-1809.05 h -148.25 v -356.31 h -169.8 l -300.8,521.02 -425.6,737.14 -0.01,-0.02 v 0.02 L 1653.95,2984.7 1461.28,2664.26 H 937.504 l 267.896,456.08 651.04,1108.34" />
  </g>
</svg>
